<?xml version="1.0" encoding="utf-8"?>
<!-- Generator: Adobe Illustrator 16.0.0, SVG Export Plug-In . SVG Version: 6.00 Build 0)  -->
<!DOCTYPE svg PUBLIC "-//W3C//DTD SVG 1.1//EN" "http://www.w3.org/Graphics/SVG/1.1/DTD/svg11.dtd">
<svg version="1.1" id="Layer_1" xmlns="http://www.w3.org/2000/svg" xmlns:xlink="http://www.w3.org/1999/xlink" x="0px" y="0px"
     width="185.99px" height="44.35px" viewBox="0 0 185.99 44.35" enable-background="new 0 0 185.99 44.35" xml:space="preserve">
<g>
	<g>
		<path fill="#94BBE4" d="M56.23,10.81h16.5v2.98H60.22v4.79h12v2.98h-12v5.27h12.72v2.98H56.23V10.81z"/>
    <path fill="#94BBE4" d="M80.86,13.98h3.95l7.05,15.83h-3.7l-1.66-3.92h-7.45l-1.64,3.92h-3.59L80.86,13.98z M85.49,23.4l-2.7-6.67
			l-2.75,6.67H85.49z"/>
    <path fill="#94BBE4" d="M99.42,13.53c2.44,0,7.32,0.44,7.74,5.03h-3.59c-0.11-1.22-1.22-2.55-3.99-2.55
			c-2.22,0-3.68,0.69-3.68,2.17c0,3.72,11.79,0.15,11.79,6.92c0,4.08-4.23,5.14-7.6,5.14c-5.7,0-7.98-2.24-8.03-5.56h3.59
			c0.09,2.08,1.82,3.08,4.54,3.08c2.02,0,3.9-0.6,3.9-2.33c0-3.92-11.66-0.51-11.66-7.01C92.44,14.91,95.56,13.53,99.42,13.53z"/>
    <path fill="#94BBE4" d="M114.86,23.78l-6.92-9.8H112l4.52,7.05l4.52-7.05h4.06l-6.92,9.8v6.03h-3.33V23.78z"/>
    <path fill="#003466" d="M124.52,10.81h4.47l6.2,15.22l6.07-15.22h4.31l-8.36,19h-4.23L124.52,10.81z"/>
    <path fill="#003466" d="M146.77,13.98h3.33v15.83h-3.33V13.98z"/>
    <path fill="#003466" d="M159.47,13.53c2.44,0,7.32,0.44,7.74,5.03h-3.59c-0.11-1.22-1.22-2.55-3.99-2.55
			c-2.22,0-3.68,0.69-3.68,2.17c0,3.72,11.79,0.15,11.79,6.92c0,4.08-4.23,5.14-7.6,5.14c-5.7,0-7.98-2.24-8.03-5.56h3.59
			c0.09,2.08,1.82,3.08,4.54,3.08c2.02,0,3.9-0.6,3.9-2.33c0-3.92-11.66-0.51-11.66-7.01C152.49,14.91,155.61,13.53,159.47,13.53z"
    />
    <path fill="#003466" d="M175,13.98h3.95l7.05,15.83h-3.7l-1.66-3.92h-7.45l-1.64,3.92h-3.59L175,13.98z M179.63,23.4l-2.71-6.67
			l-2.75,6.67H179.63z"/>
	</g>
</g>
  <g>
	<g>
		<polygon fill="#003466" points="30.09,38.73 24.44,44.35 0,19.99 11.28,19.99 		"/>
    <polygon fill="#003466" points="26.32,31.24 31.97,36.86 49.51,19.37 38.24,19.37 		"/>
	</g>
    <g>
		<polygon fill="#94BBE4" points="16.61,21.55 22.25,27.17 39.8,9.68 28.52,9.68 		"/>
      <polygon fill="#94BBE4" points="0.63,18.12 11.91,18.12 30.09,0 18.8,0 		"/>
	</g>
</g>
</svg>
