<?xml version="1.0" encoding="utf-8"?>
<!-- Generator: Adobe Illustrator 16.0.0, SVG Export Plug-In . SVG Version: 6.00 Build 0)  -->
<!DOCTYPE svg PUBLIC "-//W3C//DTD SVG 1.1//EN" "http://www.w3.org/Graphics/SVG/1.1/DTD/svg11.dtd">
<svg version="1.1" id="Layer_1" xmlns="http://www.w3.org/2000/svg" xmlns:xlink="http://www.w3.org/1999/xlink" x="0px" y="0px"
	 width="82.41px" height="73.19px" viewBox="0 0 82.41 73.19" enable-background="new 0 0 82.41 73.19" xml:space="preserve">
<g>
	<g>
		<g>
			<g>
				<path fill="#FFFF00" d="M6.97,71.69c-2.15,0-3.91-0.92-4.84-2.52c-0.92-1.6-0.84-3.58,0.24-5.45L36.61,4.43
					c1.08-1.86,2.75-2.93,4.6-2.93c1.85,0,3.52,1.07,4.6,2.93l34.23,59.3c1.07,1.86,1.16,3.85,0.24,5.45
					c-0.92,1.6-2.69,2.52-4.83,2.52H6.97z"/>
				<path fill="none" stroke="#FFFF00" stroke-miterlimit="10" d="M6.97,71.69c-2.15,0-3.91-0.92-4.84-2.52
					c-0.92-1.6-0.84-3.58,0.24-5.45L36.61,4.43c1.08-1.86,2.75-2.93,4.6-2.93c1.85,0,3.52,1.07,4.6,2.93l34.23,59.3
					c1.07,1.86,1.16,3.85,0.24,5.45c-0.92,1.6-2.69,2.52-4.83,2.52H6.97z"/>
			</g>
			<g>
				<path fill="none" stroke="#FFFF00" stroke-width="3" stroke-miterlimit="10" d="M6.97,71.69c-2.15,0-3.91-0.92-4.84-2.52
					c-0.92-1.6-0.84-3.58,0.24-5.45L36.61,4.43c1.08-1.86,2.75-2.93,4.6-2.93c1.85,0,3.52,1.07,4.6,2.93l34.23,59.3
					c1.07,1.86,1.16,3.85,0.24,5.45c-0.92,1.6-2.69,2.52-4.83,2.52H6.97z"/>
			</g>
		</g>
	</g>
	<g>
		<path fill="#FFFF00" d="M6.97,68.69c-2.2,0-3.1-1.56-2-3.46L39.2,5.93c1.1-1.9,2.9-1.9,4,0l34.23,59.29c1.1,1.9,0.2,3.46-2,3.46
			H6.97z"/>
		<path fill="none" stroke="#000000" stroke-width="3" stroke-miterlimit="10" d="M6.97,68.69c-2.2,0-3.1-1.56-2-3.46L39.2,5.93
			c1.1-1.9,2.9-1.9,4,0l34.23,59.29c1.1,1.9,0.2,3.46-2,3.46H6.97z"/>
	</g>
	<g>
		<path d="M39.65,52.44l-2.18-26.06c-0.19-2.06,1.8-3.48,3.73-3.48c1.93,0,3.92,1.42,3.73,3.48l-2.18,26.06H39.65z"/>
		<path d="M41.2,54.79c1.93,0,3.67,1.61,3.67,3.68c0,2.06-1.68,3.68-3.67,3.68c-1.99,0-3.67-1.61-3.67-3.68
			C37.54,56.41,39.28,54.79,41.2,54.79z"/>
	</g>
</g>
</svg>
